<?xml version="1.0" encoding="utf-8"?>
<!-- Generator: Adobe Illustrator 21.0.0, SVG Export Plug-In . SVG Version: 6.00 Build 0)  -->
<svg version="1.1" id="Layer_1" xmlns="http://www.w3.org/2000/svg" xmlns:xlink="http://www.w3.org/1999/xlink" x="0px" y="0px"
	 viewBox="0 0 102.5 78.5" style="enable-background:new 0 0 102.5 78.5;" xml:space="preserve">
<style type="text/css">
	.st0{fill:#F6762B;}
</style>
<title>mimir-noshadow</title>
<path class="st0" d="M69.6,40.6l9-8.9v17.9L69.6,40.6z M43.3,40.6l8-7.9l8,7.9l-0.1,0.1l-7.8,7.7l-0.1,0.1l-0.1-0.1l-7.8-7.7
	L43.3,40.6z M32.9,40.6l-9,8.9V31.7L32.9,40.6z M74.1,10.2c5.5-4.5,13.7-3.8,18.2,1.8c1.9,2.3,2.9,5.2,2.9,8.2v38.1l-0.1,1.7
	c-0.2,1.6-0.7,3.2-1.6,4.7c-2.9,5.2-9,7.7-14.7,6.1c-4.7-1.3-8.2-5.1-9.3-9.8c-0.1-0.4-0.1-0.9-0.2-1.4c-0.5-2-2.6-3.1-4.5-2.6
	c-1.2,0.3-2.2,1.3-2.5,2.5c-0.1,0.5-0.2,1-0.2,1.5c-0.1,1.5-0.5,3-1.2,4.4c-2.7,5.3-9.3,7.4-14.6,4.7c-1.5-0.8-2.8-1.9-3.8-3.3
	C41.3,65,40.6,63,40.4,61c0-0.3,0-0.6-0.1-0.8c-0.2-2-2.1-3.5-4.1-3.2c-1.5,0.2-2.8,1.3-3.1,2.8C33,60.1,33,60.5,32.9,61
	c-1.5,7-8.3,11.5-15.3,10c-3.6-0.8-6.8-3.1-8.6-6.3c-0.8-1.5-1.4-3-1.6-4.7l-0.1-1.6V20.2c0-7.1,5.8-12.9,12.9-12.9
	c1.2,0,2.3,0.2,3.4,0.5c2.2,0.6,4.1,1.8,5.7,3.3l16.7,16.5l-6.8,6.7l-1.2,1.2l-15.2-15c-1.4-1.5-3.7-1.6-5.2-0.2
	c-0.8,0.7-1.2,1.7-1.2,2.7v35.3c0,0.6,0.1,1.2,0.5,1.8c0.9,1.6,2.9,2.3,4.6,1.6c0.5-0.2,0.9-0.6,1.2-0.9l15.2-15l0.1,0.1l10.6,10.4
	c1.4,1.3,3.6,1.3,5,0c3.5-3.5,7.1-7,10.6-10.5l0.1-0.1l15.1,14.9c0.4,0.5,1,0.9,1.6,1.1c1.7,0.6,3.5-0.2,4.4-1.7
	c0.3-0.5,0.5-1.2,0.5-1.8V23c0-2-1.6-3.6-3.7-3.6c-1,0-1.9,0.4-2.6,1.1l-15.2,15l-8-7.9l14.7-14.5L74.1,10.2z M63.4,10.5L51.3,22.5
	L34,5.4C31.1,2.7,27.6,1,23.7,0.3c-2.3-0.4-4.7-0.4-7,0c-8.4,1.5-15,8-16.4,16.4C0.1,17.9,0,19.1,0,20.2v38.1C0,58.9,0,59.4,0,60
	C1,71.1,10.7,79.4,21.9,78.5c4.4-0.4,8.6-2.2,11.8-5.1c0.9-0.9,1.8-1.8,2.5-2.8c0.7,1,1.5,1.9,2.4,2.8c7.1,6.9,18.5,6.9,25.5-0.2
	c0.8-0.8,1.5-1.7,2.2-2.6c0.8,0.9,1.6,1.8,2.5,2.7c8.3,7.5,21,6.9,28.6-1.3c3-3.3,4.8-7.5,5.2-11.9c0-0.6,0.1-1.1,0.1-1.7V20.2
	c0-1.2-0.1-2.3-0.3-3.5c-1.9-11-12.4-18.4-23.4-16.4C75,0.9,71.4,2.7,68.6,5.3L63.4,10.5z"/>
</svg>
